<svg width="36" height="24" fill="none" xmlns="http://www.w3.org/2000/svg"><path d="M10.441.5c1.06 0 2.013.092 2.888.279.869.185 1.61.491 2.236.914.617.423 1.1.984 1.447 1.69.336.696.503 1.566.503 2.596 0 1.115-.251 2.047-.757 2.79-.51.745-1.26 1.355-2.26 1.826 1.362.394 2.372 1.084 3.04 2.062.674.988 1.003 2.17 1.003 3.556 0 1.124-.214 2.09-.644 2.902a5.597 5.597 0 0 1-1.752 2.004 7.763 7.763 0 0 1-2.518 1.152c-.945.248-1.918.372-2.895.37H0V.5h10.441Zm-.632 8.946c.864 0 1.58-.205 2.145-.621.561-.41.833-1.087.833-2.013 0-.515-.092-.94-.272-1.272a2.005 2.005 0 0 0-.75-.77 3.028 3.028 0 0 0-1.074-.387 6.492 6.492 0 0 0-1.254-.11H4.876v5.173h4.933Zm.272 9.426c.48 0 .938-.041 1.367-.139a3.187 3.187 0 0 0 1.147-.47c.327-.215.597-.508.791-.883.196-.37.292-.854.292-1.435 0-1.141-.322-1.953-.96-2.444-.638-.486-1.494-.727-2.543-.727h-5.3v6.1h5.206v-.002Zm15.41-.074c.66.644 1.613.968 2.85.968.887 0 1.654-.225 2.3-.67.637-.449 1.026-.927 1.175-1.422h3.877c-.622 1.928-1.567 3.307-2.859 4.136-1.275.833-2.828 1.247-4.642 1.247-1.263 0-2.4-.203-3.418-.606a7.257 7.257 0 0 1-2.59-1.724 7.865 7.865 0 0 1-1.628-2.672 9.775 9.775 0 0 1-.576-3.417c0-1.198.2-2.319.592-3.353.373-1 .945-1.914 1.68-2.687a7.984 7.984 0 0 1 2.599-1.788 8.337 8.337 0 0 1 3.343-.651c1.357 0 2.542.262 3.56.791a7.138 7.138 0 0 1 2.502 2.127c.653.887 1.119 1.903 1.408 3.042.29 1.138.39 2.325.308 3.568h-11.57c.001 1.267.427 2.467 1.09 3.111Zm5.06-8.422c-.524-.58-1.409-.892-2.492-.892-.704 0-1.285.117-1.752.358a3.546 3.546 0 0 0-1.116.883c-.27.333-.471.717-.59 1.13-.104.344-.17.698-.2 1.056h7.165c-.105-1.123-.49-1.952-1.015-2.535Zm-7.05-8.39h8.977v2.186h-8.976V1.986Z" fill="#E3E4E6" fill-opacity=".55"/></svg>