<svg width="32" height="31" fill="none" xmlns="http://www.w3.org/2000/svg"><path d="M30 15.5a13.96 13.96 0 0 1-4.122 9.921A13.956 13.956 0 0 1 16 29.5c-7.732 0-14-6.268-14-14a13.952 13.952 0 0 1 3.85-9.642A13.96 13.96 0 0 1 16 1.5a13.956 13.956 0 0 1 9.878 4.079M30 15.5a13.96 13.96 0 0 0-4.122-9.921M30 15.5c-2.043 0-7.678-.77-12.721 1.444-5.479 2.406-9.446 6.138-11.175 8.459M30 15.5c0 1.724-.312 3.375-.882 4.9m-3.24-14.821A14.027 14.027 0 0 0 21.6 2.665m-10.85-.147C12.941 4.54 17.722 9.689 19.5 14.8c1.778 5.112 2.436 11.396 2.842 13.185M2.108 13.75c2.644.16 9.645.303 14.125-1.61s8.335-5.432 9.657-6.548M3.05 20.829a14.054 14.054 0 0 0 6.3 6.994" stroke="#E3E4E6" stroke-opacity=".55" stroke-width="2.8" stroke-linecap="round" stroke-linejoin="round"/></svg>