<svg width="173" height="53" fill="none" xmlns="http://www.w3.org/2000/svg"><g clip-path="url(#a)" fill="#E3E4E6" fill-opacity=".55"><path d="m128.686 50.627 14.415-15.966-14.415-15.969h15.21l7.14 7.757 6.875-7.757h14.679l-14.347 15.903 14.544 16.032h-15.272l-7.075-7.82-7.009 7.82h-14.745Zm0-39.093h-16.327v7.158h16.327v10.789h-16.327v9.902h16.327v11.243h-28.327V.322h28.327v11.213ZM88.41.321V20.91h-.132c-2.645-2.998-5.95-4.04-9.786-4.04-7.856 0-13.773 5.265-15.85 12.225-2.37-7.669-8.48-12.368-17.538-12.368-7.357 0-13.167 3.255-16.198 8.56v-6.593H13.698v-7.158h16.595V.321H.143v50.306h13.556V29.481H27.21a19.775 19.775 0 0 0-.618 4.971c0 10.494 8.133 17.857 18.512 17.857 8.727 0 14.48-4.039 17.521-11.403H51.01c-1.572 2.212-2.764 2.87-5.905 2.87-3.643 0-6.784-3.133-6.784-6.847h23.655c1.024 8.335 7.611 15.523 16.65 15.523 3.899 0 7.469-1.89 9.652-5.083h.132v3.257h11.949V.32h-11.95Zm-49.712 29.31c.753-3.195 3.267-5.283 6.406-5.283 3.455 0 5.84 2.024 6.468 5.283H38.697Zm42.46 13.336c-4.405 0-7.142-4.045-7.142-8.27 0-4.515 2.38-8.857 7.142-8.857 4.937 0 6.904 4.342 6.904 8.857-.001 4.282-2.085 8.27-6.904 8.27Z"/></g><defs><clipPath id="a"><path fill="#fff" transform="translate(.143 .321)" d="M0 0h172.857v51.857H0z"/></clipPath></defs></svg>