<svg width="28" height="26" fill="none" xmlns="http://www.w3.org/2000/svg"><path fill-rule="evenodd" clip-rule="evenodd" d="M10.4 9.281h5.2v2.331c.75-1.34 2.67-2.545 5.555-2.545 5.532 0 6.845 2.669 6.845 7.565V25.7h-5.6v-7.953c0-2.788-.75-4.36-2.656-4.36C17.1 13.386 16 15.08 16 17.745V25.7h-5.6V9.281ZM.798 25.486h5.6V9.066h-5.6v16.42ZM7.2 3.713c0 .422-.093.84-.274 1.23a3.17 3.17 0 0 1-.78 1.04c-.677.606-1.593.945-2.548.943-.953 0-1.867-.339-2.545-.941a3.213 3.213 0 0 1-.778-1.042A2.935 2.935 0 0 1 0 3.713c0-.853.378-1.67 1.054-2.272C1.732.838 2.646.5 3.6.5c.955 0 1.87.339 2.547.941C6.821 2.043 7.2 2.86 7.2 3.713Z" fill="#E3E4E6" fill-opacity=".55"/></svg>