<svg width="264" height="57" fill="none" xmlns="http://www.w3.org/2000/svg"><g clip-path="url(#a)" fill="#E3E4E6" fill-opacity=".55"><path d="m93.06 32.518-1.571 4.442h-.131c-.262-1.002-.742-2.526-1.528-4.355l-8.423-21.121H73.16v33.663h5.455V24.374c0-1.306 0-2.787-.044-4.616-.043-.915-.13-1.611-.174-2.134h.13a20.47 20.47 0 0 0 .786 2.874L89.438 45.06h3.84l10.038-24.78c.218-.566.437-1.698.655-2.656h.131a316.013 316.013 0 0 0-.262 6.053v21.34h5.805v-33.62h-7.944l-8.641 21.12Zm22.084-11.628h5.673v24.126h-5.673V20.89Zm2.88-10.19c-.96 0-1.746.348-2.4.958-.655.61-1.004 1.393-1.004 2.351a3.06 3.06 0 0 0 1.004 2.308c.654.61 1.44.915 2.4.915s1.789-.348 2.4-.915a3.06 3.06 0 0 0 1.004-2.308c0-.914-.349-1.698-1.004-2.351-.567-.61-1.396-.958-2.4-.958Zm22.913 9.972a15.855 15.855 0 0 0-3.186-.348c-2.575 0-4.932.566-6.896 1.698-1.964 1.133-3.535 2.7-4.539 4.66-1.047 2.003-1.571 4.312-1.571 6.968 0 2.308.524 4.355 1.528 6.228 1.004 1.829 2.4 3.31 4.277 4.311 1.789 1.002 3.884 1.524 6.241 1.524 2.706 0 5.019-.566 6.852-1.611l.044-.044v-5.226l-.219.175c-.829.61-1.789 1.132-2.749 1.437-1.004.348-1.921.522-2.706.522-2.27 0-4.059-.653-5.325-2.09-1.309-1.394-1.964-3.31-1.964-5.705 0-2.482.655-4.442 2.008-5.88 1.353-1.436 3.142-2.177 5.324-2.177 1.833 0 3.71.61 5.412 1.83l.219.174v-5.531l-.044-.044c-.742-.305-1.571-.653-2.706-.87Zm18.723-.174a5.996 5.996 0 0 0-3.841 1.35c-.96.784-1.614 1.916-2.182 3.266h-.043V20.89h-5.674v24.126h5.674V32.692c0-2.09.436-3.832 1.396-5.095.96-1.307 2.182-1.96 3.666-1.96.524 0 1.048.13 1.702.218.611.174 1.048.348 1.353.566l.219.174v-5.661l-.131-.044c-.393-.261-1.179-.392-2.139-.392Zm15.45-.13c-3.972 0-7.158 1.175-9.384 3.484-2.269 2.308-3.36 5.487-3.36 9.493 0 3.745 1.135 6.794 3.317 9.015 2.182 2.177 5.15 3.31 8.859 3.31 3.885 0 6.983-1.176 9.209-3.528 2.27-2.352 3.361-5.487 3.361-9.363 0-3.832-1.048-6.88-3.186-9.102-2.051-2.22-5.063-3.31-8.816-3.31Zm4.539 18.552c-1.048 1.35-2.706 2.003-4.757 2.003-2.052 0-3.71-.654-4.888-2.09-1.179-1.35-1.746-3.31-1.746-5.793 0-2.569.611-4.529 1.746-5.922 1.178-1.394 2.793-2.09 4.844-2.09 2.008 0 3.579.652 4.714 2.003 1.134 1.35 1.745 3.31 1.745 5.879-.087 2.613-.567 4.66-1.658 6.01Zm20.119-8.014c-1.789-.74-2.924-1.306-3.447-1.785-.437-.436-.655-1.045-.655-1.83 0-.652.262-1.306.916-1.741.655-.436 1.397-.653 2.488-.653.96 0 1.964.174 2.924.435s1.833.653 2.532 1.176l.218.174V21.37l-.131-.043c-.655-.262-1.528-.523-2.575-.74-1.048-.175-2.008-.262-2.793-.262-2.706 0-4.932.653-6.678 2.09-1.745 1.35-2.575 3.18-2.575 5.313 0 1.133.175 2.134.568 2.962.392.827.96 1.611 1.745 2.264.786.61 1.921 1.307 3.492 1.96 1.309.566 2.313 1.002 2.924 1.35.611.348 1.004.74 1.309 1.045.219.349.349.784.349 1.35 0 1.611-1.222 2.395-3.709 2.395-.96 0-1.964-.174-3.143-.566a12.168 12.168 0 0 1-3.186-1.611l-.218-.174v5.53l.131.044c.829.392 1.833.653 3.055.958 1.222.218 2.313.392 3.273.392 2.925 0 5.325-.653 7.027-2.09 1.746-1.394 2.662-3.18 2.662-5.488 0-1.61-.436-3.048-1.396-4.137-1.266-1.045-2.837-2.134-5.107-3.005Zm21.473-10.538c-3.971 0-7.157 1.175-9.383 3.484-2.226 2.308-3.361 5.487-3.361 9.493 0 3.745 1.135 6.794 3.317 9.015 2.182 2.177 5.15 3.31 8.86 3.31 3.884 0 6.983-1.176 9.209-3.528 2.269-2.352 3.36-5.487 3.36-9.363 0-3.832-1.047-6.88-3.186-9.102-2.051-2.22-5.063-3.31-8.816-3.31Zm4.495 18.552c-1.047 1.35-2.706 2.003-4.757 2.003-2.095 0-3.709-.654-4.888-2.09-1.178-1.35-1.746-3.31-1.746-5.793 0-2.569.611-4.529 1.746-5.922 1.179-1.394 2.793-2.09 4.845-2.09 1.964 0 3.578.652 4.713 2.003 1.135 1.35 1.746 3.31 1.746 5.879 0 2.613-.568 4.66-1.659 6.01Zm37.839-13.37v-4.66h-5.717v-7.142l-.175.044-5.411 1.61-.131.045v5.443h-8.554v-3.048c0-1.394.349-2.483.96-3.18.611-.696 1.527-1.045 2.662-1.045.786 0 1.615.175 2.531.566l.219.131v-4.92l-.131-.044c-.786-.262-1.833-.436-3.186-.436a10.24 10.24 0 0 0-4.539 1.045 7.563 7.563 0 0 0-3.099 3.092c-.742 1.307-1.135 2.787-1.135 4.486v3.353h-3.971v4.616h3.971v19.51h5.718V25.55h8.554v12.41c0 5.096 2.4 7.665 7.201 7.665.786 0 1.615-.13 2.4-.261.83-.174 1.441-.392 1.79-.566l.043-.044v-4.66l-.218.175c-.349.217-.655.391-1.178.522-.437.13-.829.174-1.135.174-1.135 0-1.92-.261-2.488-.914-.523-.61-.785-1.611-.785-3.092V25.55h5.804ZM.012.16h26.753v26.696H.012V.161Zm29.546 0h26.754v26.696H29.558V.161ZM.012 29.644h26.753v26.695H.012V29.644Zm29.546 0h26.754v26.695H29.558V29.644Z"/></g><defs><clipPath id="a"><path fill="#fff" transform="translate(.012 .16)" d="M0 0h263.607v56.179H0z"/></clipPath></defs></svg>