<svg width="183" height="61" fill="none" xmlns="http://www.w3.org/2000/svg"><path d="M78.226 31.026c0 8.398-6.666 14.586-14.847 14.586s-14.847-6.188-14.847-14.586c0-8.457 6.666-14.586 14.847-14.586 8.18 0 14.847 6.13 14.847 14.586Zm-6.5 0c0-5.248-3.863-8.838-8.347-8.838s-8.348 3.59-8.348 8.838c0 5.195 3.864 8.838 8.348 8.838 4.484 0 8.347-3.65 8.347-8.838Zm38.529 0c0 8.398-6.666 14.586-14.847 14.586-8.18 0-14.847-6.188-14.847-14.586 0-8.45 6.666-14.586 14.847-14.586s14.847 6.13 14.847 14.586Zm-6.499 0c0-5.248-3.864-8.838-8.348-8.838-4.484 0-8.348 3.59-8.348 8.838 0 5.195 3.864 8.838 8.348 8.838 4.484 0 8.348-3.65 8.348-8.838Zm37.194-13.705v26.186c0 10.772-6.446 15.172-14.066 15.172-7.174 0-11.491-4.729-13.119-8.596l5.658-2.32c1.008 2.373 3.477 5.175 7.454 5.175 4.878 0 7.9-2.966 7.9-8.55v-2.097h-.226c-1.455 1.769-4.258 3.314-7.794 3.314-7.4 0-14.18-6.352-14.18-14.526 0-8.234 6.78-14.639 14.18-14.639 3.53 0 6.332 1.546 7.794 3.262h.226v-2.374h6.173v-.007Zm-5.712 13.758c0-5.136-3.477-8.891-7.901-8.891-4.484 0-8.241 3.755-8.241 8.89 0 5.084 3.757 8.786 8.241 8.786 4.424 0 7.901-3.702 7.901-8.785Zm15.888-29.106v42.744h-6.339V1.973h6.339Zm24.703 33.854 5.044 3.314c-1.628 2.374-5.551 6.464-12.331 6.464-8.408 0-14.687-6.405-14.687-14.586 0-8.673 6.333-14.585 13.96-14.585 7.68 0 11.437 6.023 12.665 9.278l.674 1.658-19.785 8.075c1.515 2.926 3.87 4.42 7.173 4.42 3.31 0 5.605-1.605 7.287-4.038Zm-15.528-5.248 13.226-5.412c-.728-1.822-2.916-3.091-5.492-3.091-3.303 0-7.901 2.874-7.734 8.503ZM24.537 27.232v-6.188h21.159c.207 1.078.314 2.354.314 3.735 0 4.643-1.288 10.383-5.439 14.474-4.037 4.143-9.195 6.352-16.028 6.352-12.665 0-23.314-10.166-23.314-22.648C1.229 10.476 11.879.31 24.543.31c7.007 0 11.998 2.71 15.748 6.24l-4.43 4.367c-2.69-2.485-6.333-4.419-11.324-4.419-9.249 0-16.482 7.346-16.482 16.46 0 9.115 7.233 16.46 16.482 16.46 5.998 0 9.415-2.374 11.604-4.53 1.775-1.75 2.942-4.249 3.403-7.662l-15.007.007Z" fill="#E3E4E6" fill-opacity=".55"/></svg>