<svg width="96" height="48" fill="none" xmlns="http://www.w3.org/2000/svg"><path d="M6.608 13.724c3.815 0 6.926 3.111 6.926 6.95 0 3.837-3.11 6.948-6.926 6.948H3.702V18.29H0v13.035h6.608c5.882 0 10.65-4.77 10.65-10.65 0-5.86-4.723-10.651-10.627-10.651H0v3.701h6.608Z" fill="url(#a)"/><path d="M19.073 22.99c0 4.587 3.747 8.334 8.357 8.334a8.13 8.13 0 0 0 2.838-.5v-4.201c-.795.613-1.748 1-2.838 1-2.657 0-4.633-2.181-4.633-4.634 0-2.52 1.998-4.655 4.633-4.655 1.794 0 3.315 1.022 4.11 2.498h-6.495v3.724h10.56c.09-.545.159-1.09.159-1.612a8.302 8.302 0 0 0-1.953-5.314c-1.544-1.816-3.838-2.975-6.381-2.975-4.61 0-8.357 3.725-8.357 8.335Z" fill="url(#b)"/><path d="m43.608 27.622 8.13-12.967H37.227v3.68h7.812l-8.13 12.989h15.556v-3.702h-8.857Z" fill="url(#c)"/><path d="M54.51 14.655v16.669h3.724V14.655c-1.386.496-2.202.489-3.724 0Zm1.874-.93a1.86 1.86 0 0 0 1.85-1.863A1.86 1.86 0 0 0 56.384 10a1.86 1.86 0 0 0-1.851 1.862 1.86 1.86 0 0 0 1.85 1.862Z" fill="url(#d)"/><path d="M61.623 26.237c1.294 2.975 4.201 5.087 7.676 5.087a8.325 8.325 0 0 0 8.334-8.335 8.325 8.325 0 0 0-8.334-8.334 8.325 8.325 0 0 0-8.335 8.335c0 1.158.227 2.225.659 3.247Zm3.043-3.247c0-2.544 2.09-4.633 4.633-4.633s4.632 2.09 4.632 4.633-2.09 4.632-4.632 4.632c-2.544 0-4.633-2.09-4.633-4.633Zm-3.633 8.334C61.758 35.139 65.188 38 69.184 38c3.929 0 7.448-2.793 8.175-6.676h-3.838c-.726 1.794-2.361 2.974-4.337 2.974-1.885 0-3.633-1.203-4.315-2.974h-3.838Zm5.722-8.335c0 1.363 1.158 2.521 2.544 2.521 1.385 0 2.543-1.158 2.543-2.52 0-1.386-1.158-2.544-2.543-2.544-1.386 0-2.544 1.158-2.544 2.543Z" fill="url(#e)"/><path d="M84.092 31.324v-9.288c0-2.021 1.613-3.702 3.68-3.702 2.066 0 3.723 1.68 3.723 3.702v9.288h3.702v-9.288c0-4.065-3.316-7.38-7.426-7.38-4.065 0-7.403 3.315-7.403 7.38v9.288h3.724Z" fill="url(#f)"/><defs><linearGradient id="a" x1=".228" y1="9.713" x2="90.91" y2="58.801" gradientUnits="userSpaceOnUse"><stop stop-color="#BC3CD8"/><stop offset="1" stop-color="#C54B8C"/></linearGradient><linearGradient id="b" x1=".228" y1="9.713" x2="90.91" y2="58.801" gradientUnits="userSpaceOnUse"><stop stop-color="#BC3CD8"/><stop offset="1" stop-color="#C54B8C"/></linearGradient><linearGradient id="c" x1=".228" y1="9.713" x2="90.91" y2="58.801" gradientUnits="userSpaceOnUse"><stop stop-color="#BC3CD8"/><stop offset="1" stop-color="#C54B8C"/></linearGradient><linearGradient id="d" x1=".228" y1="9.713" x2="90.91" y2="58.801" gradientUnits="userSpaceOnUse"><stop stop-color="#BC3CD8"/><stop offset="1" stop-color="#C54B8C"/></linearGradient><linearGradient id="e" x1=".228" y1="9.713" x2="90.91" y2="58.801" gradientUnits="userSpaceOnUse"><stop stop-color="#BC3CD8"/><stop offset="1" stop-color="#C54B8C"/></linearGradient><linearGradient id="f" x1=".228" y1="9.713" x2="90.91" y2="58.801" gradientUnits="userSpaceOnUse"><stop stop-color="#BC3CD8"/><stop offset="1" stop-color="#C54B8C"/></linearGradient></defs></svg>